<svg width="40" height="40" viewBox="0 0 40 40" fill="none" xmlns="http://www.w3.org/2000/svg">
<path d="M32.0666 9.3H31.3999L25.7666 3.66666C25.3166 3.21666 24.5833 3.21666 24.1166 3.66666C23.6666 4.11666 23.6666 4.85 24.1166 5.31666L28.0999 9.3H11.8999L15.8833 5.31666C16.3333 4.86666 16.3333 4.13333 15.8833 3.66666C15.4333 3.21666 14.6999 3.21666 14.2333 3.66666L8.61659 9.3H7.94992C6.44992 9.3 3.33325 9.3 3.33325 13.5667C3.33325 15.1833 3.66659 16.25 4.36659 16.95C4.76659 17.3667 5.24992 17.5833 5.76659 17.7C6.24992 17.8167 6.76659 17.8333 7.26659 17.8333H32.7333C33.2499 17.8333 33.7333 17.8 34.1999 17.7C35.5999 17.3667 36.6666 16.3667 36.6666 13.5667C36.6666 9.3 33.5499 9.3 32.0666 9.3Z" fill="#DBDAD6"/>
<path d="M31.7501 20H8.11676C7.08343 20 6.3001 20.9167 6.46676 21.9333L7.86676 30.5C8.33343 33.3667 9.58343 36.6667 15.1334 36.6667H24.4834C30.1001 36.6667 31.1001 33.85 31.7001 30.7L33.3834 21.9833C33.5834 20.95 32.8001 20 31.7501 20ZM17.6834 30.75C17.6834 31.4 17.1668 31.9167 16.5334 31.9167C15.8834 31.9167 15.3668 31.4 15.3668 30.75V25.25C15.3668 24.6167 15.8834 24.0833 16.5334 24.0833C17.1668 24.0833 17.6834 24.6167 17.6834 25.25V30.75ZM24.8168 30.75C24.8168 31.4 24.3001 31.9167 23.6501 31.9167C23.0168 31.9167 22.4834 31.4 22.4834 30.75V25.25C22.4834 24.6167 23.0168 24.0833 23.6501 24.0833C24.3001 24.0833 24.8168 24.6167 24.8168 25.25V30.75Z" fill="#DBDAD6"/>
</svg>
