<svg width="32" height="33" viewBox="0 0 32 33" fill="none" xmlns="http://www.w3.org/2000/svg">
<path d="M28.9725 27.9527L28.0179 26.9981C28.5085 26.2556 28.8002 25.354 28.8002 24.3994C28.8002 21.7742 26.6788 19.6529 24.0536 19.6529C21.4285 19.6529 19.3071 21.7742 19.3071 24.3994C19.3071 27.0246 21.4285 29.1459 24.0536 29.1459C25.0215 29.1459 25.9098 28.8542 26.6523 28.3637L27.6069 29.3183C27.7925 29.5039 28.0444 29.5967 28.2831 29.5967C28.535 29.5967 28.7736 29.5039 28.9593 29.3183C29.3437 28.9338 29.3437 28.3239 28.9725 27.9527Z" fill="#DBDAD6"/>
<path d="M2.77359 19.8253C2.77359 19.8651 2.74707 19.9181 2.74707 19.9579C3.96684 22.3974 5.95561 24.3995 8.39515 25.606C8.43493 25.606 8.48796 25.5795 8.52774 25.5795C8.07695 24.0415 7.73223 22.4637 7.48032 20.886C5.88931 20.6208 4.31156 20.2761 2.77359 19.8253Z" fill="#DBDAD6"/>
<path d="M25.3666 8.95339C24.1203 6.34149 22.0122 4.2334 19.4136 3.00037C19.8909 4.57812 20.2886 6.19564 20.5538 7.81317C22.1713 8.07834 23.7888 8.46283 25.3666 8.95339Z" fill="#DBDAD6"/>
<path d="M2.6416 8.9534C4.23261 8.4761 5.85014 8.07835 7.46766 7.81318C7.73283 6.23543 8.06429 4.67094 8.51508 3.13296C8.4753 3.13296 8.42227 3.10645 8.38249 3.10645C5.88991 4.33948 3.86138 6.42105 2.6416 8.9534Z" fill="#DBDAD6"/>
<path d="M18.4061 7.53476C18.0879 5.81116 17.6902 4.08757 17.1201 2.41701C17.0935 2.3242 17.0935 2.24465 17.0803 2.13858C16.0992 1.89993 15.065 1.75409 14.0043 1.75409C12.9304 1.75409 11.9095 1.89993 10.9151 2.15184C10.9019 2.24465 10.9151 2.3242 10.8886 2.43027C10.3318 4.10083 9.92074 5.81116 9.60254 7.53476C12.5326 7.21656 15.476 7.21656 18.4061 7.53476Z" fill="#DBDAD6"/>
<path d="M7.18887 9.94775C5.45202 10.266 3.75494 10.677 2.07112 11.2338C1.97831 11.2603 1.89876 11.2603 1.80596 11.2736C1.55405 12.2547 1.4082 13.2889 1.4082 14.3495C1.4082 15.4235 1.55405 16.4444 1.80596 17.4388C1.89876 17.452 1.97831 17.4388 2.08438 17.4653C3.75494 18.0221 5.46528 18.4331 7.20213 18.7513C6.87067 15.8212 6.87067 12.8779 7.18887 9.94775Z" fill="#DBDAD6"/>
<path d="M26.2014 11.2736C26.1085 11.2736 26.029 11.2603 25.9229 11.2338C24.2524 10.677 22.5288 10.266 20.8052 9.94775C21.1366 12.8779 21.1366 15.8212 20.8052 18.7381C22.5288 18.4199 24.2524 18.0221 25.9229 17.452C26.0157 17.4255 26.0953 17.4388 26.2014 17.4255C26.44 16.4311 26.5991 15.4102 26.5991 14.3363C26.5991 13.2889 26.4533 12.268 26.2014 11.2736Z" fill="#DBDAD6"/>
<path d="M9.60254 21.1644C9.92074 22.9012 10.3185 24.6116 10.8886 26.2821C10.9151 26.3749 10.9019 26.4545 10.9151 26.5606C11.9095 26.7992 12.9304 26.945 14.0043 26.945C15.065 26.945 16.0992 26.7992 17.0803 26.5473C17.0935 26.4545 17.0935 26.3749 17.1201 26.2689C17.6769 24.5983 18.0879 22.888 18.4061 21.1511C16.9477 21.3102 15.476 21.4295 14.0043 21.4295C12.5326 21.4295 11.061 21.3235 9.60254 21.1644Z" fill="#DBDAD6"/>
<path d="M9.29734 9.6428C8.89959 12.7718 8.89959 15.9273 9.29734 19.0695C12.4263 19.4673 15.5818 19.4673 18.7241 19.0695C19.1218 15.9405 19.1218 12.785 18.7241 9.6428C15.5818 9.24504 12.4263 9.24504 9.29734 9.6428Z" fill="#DBDAD6"/>
</svg>
