<svg width="290" height="60" viewBox="0 0 290 60" fill="none" xmlns="http://www.w3.org/2000/svg">
<path fill-rule="evenodd" clip-rule="evenodd" d="M171.953 42L2.5 42V45L171.953 45V42ZM189.953 42V45H288.5V42H189.953Z" fill="#DBDAD6"/>
<path d="M2.78965 36.5V0.749998H21.2896C24.623 0.749998 27.2896 1.51667 29.2896 3.05C31.5563 4.78333 32.6897 7.13333 32.6897 10.1C32.6897 13.3667 31.2063 15.65 28.2397 16.95V17.1C30.173 17.7333 31.673 18.8167 32.7396 20.35C33.8396 21.8833 34.3896 23.6667 34.3896 25.7C34.3896 29.4667 33.023 32.3167 30.2897 34.25C28.123 35.75 25.2396 36.5 21.6396 36.5H2.78965ZM13.0396 28.3H20.4896C21.623 28.3 22.5396 27.9833 23.2396 27.35C23.9396 26.7167 24.2896 25.8667 24.2896 24.8C24.2896 23.7 23.923 22.85 23.1897 22.25C22.4896 21.65 21.573 21.35 20.4396 21.35H13.0396V28.3ZM13.0396 14.65H19.5396C20.573 14.65 21.3896 14.4167 21.9896 13.95C22.5896 13.45 22.8896 12.7333 22.8896 11.8C22.8896 10.9 22.573 10.1833 21.9396 9.65C21.3063 9.11667 20.4896 8.85 19.4896 8.85H13.0396V14.65ZM36.5682 36.5V0.749998H46.2682V36.5H36.5682ZM65.6541 36.5C65.2541 35.8333 64.9708 34.9 64.8041 33.7H64.7041C63.0374 36 60.4708 37.15 57.0041 37.15C54.4708 37.15 52.4208 36.4833 50.8541 35.15C49.2874 33.8167 48.5041 31.9333 48.5041 29.5C48.5041 26.9 49.3374 25.0333 51.0041 23.9C52.6708 22.7333 54.9208 21.9833 57.7541 21.65C60.4208 21.35 62.2208 21 63.1541 20.6C64.1208 20.2 64.6041 19.6 64.6041 18.8C64.6041 17.1667 63.7041 16.35 61.9041 16.35C59.9374 16.35 58.8208 17.3667 58.5541 19.4H49.6041C49.7041 16.7333 50.7874 14.5333 52.8541 12.8C54.9208 11.0667 57.8708 10.2 61.7041 10.2C65.4374 10.2 68.2208 10.7667 70.0541 11.9C72.6874 13.5333 74.0041 16.0833 74.0041 19.55V32.3C74.0041 34.4333 74.3208 35.7 74.9541 36.1V36.5H65.6541ZM60.5541 31.55C61.7541 31.55 62.7708 31.2 63.6041 30.5C64.4374 29.7667 64.8541 28.6833 64.8541 27.25V25C63.8874 25.4667 62.6708 25.8667 61.2041 26.2C59.8708 26.5 58.9374 26.8667 58.4041 27.3C57.8708 27.7333 57.6041 28.3333 57.6041 29.1C57.6041 29.9 57.8874 30.5167 58.4541 30.95C59.0208 31.35 59.7208 31.55 60.5541 31.55ZM86.5838 11V14.5H86.7338C88.8338 11.6333 91.5671 10.2 94.9338 10.2C97.8338 10.2 100.05 11.0833 101.584 12.85C103.117 14.6167 103.884 17 103.884 20V36.5H94.4338V22.3C94.4338 19.3667 93.2505 17.9 90.8838 17.9C89.7171 17.9 88.7838 18.3667 88.0838 19.3C87.3838 20.2 87.0338 21.35 87.0338 22.75V36.5H77.5838V11H86.5838ZM123.426 36.5L118.326 27.35L116.376 29.5V36.5H107.076V0.749998H116.376V18.6L122.526 11H133.126L124.626 20.4L134.126 36.5H123.426ZM158.358 37.35C153.491 37.35 149.541 36.3 146.508 34.2C143.474 32.1 141.924 29.0667 141.858 25.1H152.558C152.891 27.9 154.891 29.3 158.558 29.3C159.758 29.3 160.808 29.0667 161.708 28.6C162.641 28.1 163.108 27.35 163.108 26.35C163.108 25.25 162.324 24.4 160.758 23.8C160.058 23.5333 158.574 23.1167 156.308 22.55C154.774 22.1833 153.524 21.85 152.558 21.55C151.591 21.25 150.441 20.8 149.108 20.2C147.774 19.5667 146.708 18.9 145.908 18.2C145.141 17.4667 144.474 16.5167 143.908 15.35C143.341 14.1833 143.058 12.8667 143.058 11.4C143.058 7.53333 144.424 4.68333 147.158 2.85C149.891 1.01666 153.441 0.0999978 157.808 0.0999978C160.408 0.0999978 162.741 0.449998 164.808 1.15C166.874 1.85 168.608 3.05 170.008 4.75C171.408 6.41666 172.124 8.5 172.158 11H161.808C161.474 8.86667 159.958 7.8 157.258 7.8C156.124 7.8 155.191 8.03333 154.458 8.5C153.724 8.96667 153.358 9.56667 153.358 10.3C153.358 10.5333 153.391 10.75 153.458 10.95C153.524 11.1167 153.641 11.2833 153.808 11.45C153.974 11.6167 154.141 11.7667 154.308 11.9C154.508 12.0333 154.774 12.1667 155.108 12.3C155.441 12.4 155.741 12.5 156.008 12.6C156.308 12.7 156.708 12.8167 157.208 12.95C157.708 13.05 158.141 13.15 158.508 13.25C158.908 13.35 159.424 13.4667 160.058 13.6C160.691 13.7333 161.258 13.8667 161.758 14C163.491 14.4333 164.974 14.9 166.208 15.4C167.441 15.8667 168.674 16.5333 169.908 17.4C171.174 18.2333 172.124 19.3333 172.758 20.7C173.424 22.0333 173.758 23.6 173.758 25.4C173.758 29.1667 172.291 32.1 169.358 34.2C166.458 36.3 162.791 37.35 158.358 37.35ZM176.168 44.95V11H185.168V14H185.318C187.284 11.4667 189.934 10.2 193.268 10.2C196.601 10.2 199.234 11.5 201.168 14.1C203.101 16.6667 204.068 19.8667 204.068 23.7C204.068 27.8667 203.051 31.1833 201.018 33.65C198.984 36.1167 196.268 37.35 192.868 37.35C189.901 37.35 187.534 36.2667 185.768 34.1H185.618V44.95H176.168ZM190.068 30.4C191.468 30.4 192.551 29.85 193.318 28.75C194.084 27.6167 194.468 26.0667 194.468 24.1C194.468 22.1333 194.084 20.5833 193.318 19.45C192.551 18.3167 191.468 17.75 190.068 17.75C188.634 17.75 187.468 18.35 186.568 19.55C185.701 20.75 185.268 22.2667 185.268 24.1C185.268 25.9667 185.701 27.4833 186.568 28.65C187.468 29.8167 188.634 30.4 190.068 30.4ZM222.441 36.5C222.041 35.8333 221.758 34.9 221.591 33.7H221.491C219.825 36 217.258 37.15 213.791 37.15C211.258 37.15 209.208 36.4833 207.641 35.15C206.075 33.8167 205.291 31.9333 205.291 29.5C205.291 26.9 206.125 25.0333 207.791 23.9C209.458 22.7333 211.708 21.9833 214.541 21.65C217.208 21.35 219.008 21 219.941 20.6C220.908 20.2 221.391 19.6 221.391 18.8C221.391 17.1667 220.491 16.35 218.691 16.35C216.725 16.35 215.608 17.3667 215.341 19.4H206.391C206.491 16.7333 207.575 14.5333 209.641 12.8C211.708 11.0667 214.658 10.2 218.491 10.2C222.225 10.2 225.008 10.7667 226.841 11.9C229.475 13.5333 230.791 16.0833 230.791 19.55V32.3C230.791 34.4333 231.108 35.7 231.741 36.1V36.5H222.441ZM217.341 31.55C218.541 31.55 219.558 31.2 220.391 30.5C221.225 29.7667 221.641 28.6833 221.641 27.25V25C220.675 25.4667 219.458 25.8667 217.991 26.2C216.658 26.5 215.725 26.8667 215.191 27.3C214.658 27.7333 214.391 28.3333 214.391 29.1C214.391 29.9 214.675 30.5167 215.241 30.95C215.808 31.35 216.508 31.55 217.341 31.55ZM247.321 37.3C243.154 37.3 239.771 36.0333 237.171 33.5C234.604 30.9667 233.321 27.7333 233.321 23.8C233.321 19.8667 234.604 16.6333 237.171 14.1C239.771 11.5333 243.154 10.25 247.321 10.25C250.854 10.25 253.754 11.2 256.021 13.1C258.321 14.9667 259.638 17.4167 259.971 20.45H250.871C250.338 18.05 249.121 16.85 247.221 16.85C244.354 16.85 242.921 19.1667 242.921 23.8C242.921 25.9667 243.288 27.65 244.021 28.85C244.788 30.05 245.888 30.65 247.321 30.65C249.521 30.65 250.754 29.1667 251.021 26.2H260.121C260.121 29.4 258.921 32.05 256.521 34.15C254.154 36.25 251.088 37.3 247.321 37.3ZM275.201 37.2C271.067 37.2 267.701 35.9333 265.101 33.4C262.534 30.8667 261.251 27.6333 261.251 23.7C261.251 19.8 262.517 16.5667 265.051 14C267.584 11.4333 270.851 10.15 274.851 10.15C278.617 10.15 281.751 11.3 284.251 13.6C287.317 16.4333 288.801 20.5833 288.701 26.05H270.501C271.101 29.2167 272.767 30.8 275.501 30.8C277.167 30.8 278.351 30.1667 279.051 28.9H288.201C287.634 31.3 286.017 33.35 283.351 35.05C281.117 36.4833 278.401 37.2 275.201 37.2ZM275.051 16.5C272.551 16.5 271.034 18.0167 270.501 21.05H279.301C279.101 19.6167 278.617 18.5 277.851 17.7C277.117 16.9 276.184 16.5 275.051 16.5Z" fill="#DBDAD6"/>
<rect x="53.8211" y="52.5836" width="183.47" height="6.34081" stroke="#DBDAD6" stroke-width="0.8"/>
<path d="M2.45605 59.3244V52.1744H7.50605V52.9644H3.35605V55.2244H7.12606V55.9844H3.35605V58.4944H7.62606V59.3244H2.45605Z" fill="#DBDAD6"/>
<path d="M12.6768 59.3244V52.1744H16.0168C16.6434 52.1744 17.1501 52.3544 17.5368 52.7144C17.9301 53.0744 18.1268 53.5477 18.1268 54.1344C18.1268 55.0477 17.7134 55.6377 16.8868 55.9044V55.9344C17.2401 56.061 17.4901 56.261 17.6368 56.5344C17.7901 56.801 17.8834 57.2077 17.9168 57.7544C17.9834 58.6677 18.0934 59.1777 18.2468 59.2844V59.3244H17.2768C17.2034 59.2644 17.1501 59.1377 17.1168 58.9444C17.0901 58.751 17.0568 58.3444 17.0168 57.7244C16.9834 57.2044 16.8534 56.8377 16.6268 56.6244C16.4068 56.411 16.0534 56.3044 15.5668 56.3044H13.5768V59.3244H12.6768ZM13.5768 52.9544V55.5744H15.6968C16.1901 55.5744 16.5634 55.461 16.8168 55.2344C17.0701 55.001 17.1968 54.6777 17.1968 54.2644C17.1968 53.8177 17.0834 53.4877 16.8568 53.2744C16.6301 53.061 16.2601 52.9544 15.7468 52.9544H13.5768Z" fill="#DBDAD6"/>
<path d="M23.2197 59.3244V52.1744H28.0697V52.9644H24.1197V55.1944H27.4097V55.9544H24.1197V59.3244H23.2197Z" fill="#DBDAD6"/>
<path d="M31.7767 59.3244L34.4067 52.1744H35.4167L38.0567 59.3244H37.0767L36.3167 57.1444H33.4667L32.6967 59.3244H31.7767ZM34.5767 54.0144L33.7267 56.4144H36.0667L35.2467 54.0144L34.9267 53.0044H34.9067C34.78 53.4044 34.67 53.741 34.5767 54.0144Z" fill="#DBDAD6"/>
<path d="M42.8311 59.3244V52.1744H43.7811L47.0411 57.1444L47.5611 58.0644H47.5811V52.1744H48.4211V59.3244H47.5011L44.2211 54.3444L43.6911 53.4544H43.6711V59.3244H42.8311Z" fill="#DBDAD6"/>
<path d="M245.741 59.3244C244.781 59.3244 244.041 59.0877 243.521 58.6144C243.007 58.1411 242.731 57.5244 242.691 56.7644H243.571C243.691 57.9911 244.427 58.6044 245.781 58.6044C246.294 58.6044 246.704 58.4911 247.011 58.2644C247.324 58.0311 247.481 57.6977 247.481 57.2644C247.481 57.0711 247.444 56.9011 247.371 56.7544C247.297 56.6077 247.207 56.4877 247.101 56.3944C247.001 56.3011 246.847 56.2144 246.641 56.1344C246.434 56.0544 246.241 55.9911 246.061 55.9444C245.887 55.8977 245.647 55.8411 245.341 55.7744C244.974 55.6944 244.671 55.6144 244.431 55.5344C244.191 55.4477 243.951 55.3311 243.711 55.1844C243.471 55.0377 243.291 54.8511 243.171 54.6244C243.057 54.3911 243.001 54.1111 243.001 53.7844C243.001 53.1977 243.221 52.7377 243.661 52.4044C244.107 52.0644 244.697 51.8944 245.431 51.8944C247.037 51.8944 247.941 52.6377 248.141 54.1244H247.291C247.224 53.6177 247.034 53.2377 246.721 52.9844C246.407 52.7244 245.984 52.5944 245.451 52.5944C244.957 52.5944 244.564 52.6944 244.271 52.8944C243.984 53.0944 243.841 53.3777 243.841 53.7444C243.841 53.9044 243.871 54.0477 243.931 54.1744C243.997 54.2944 244.081 54.3977 244.181 54.4844C244.287 54.5644 244.424 54.6377 244.591 54.7044C244.764 54.7711 244.934 54.8277 245.101 54.8744C245.267 54.9144 245.471 54.9577 245.711 55.0044C246.044 55.0711 246.317 55.1344 246.531 55.1944C246.744 55.2477 246.981 55.3311 247.241 55.4444C247.501 55.5577 247.701 55.6877 247.841 55.8344C247.987 55.9811 248.111 56.1744 248.211 56.4144C248.317 56.6477 248.371 56.9211 248.371 57.2344C248.371 57.8877 248.127 58.4011 247.641 58.7744C247.161 59.1411 246.527 59.3244 245.741 59.3244Z" fill="#DBDAD6"/>
<path d="M253.4 59.1844V52.0344H258.45V52.8244H254.3V55.0844H258.07V55.8444H254.3V58.3544H258.57V59.1844H253.4Z" fill="#DBDAD6"/>
<path d="M263.621 59.1844V52.0344H268.471V52.8244H264.521V55.0544H267.811V55.8144H264.521V59.1844H263.621Z" fill="#DBDAD6"/>
<path d="M272.178 59.1844L274.808 52.0344H275.818L278.458 59.1844H277.478L276.718 57.0044H273.868L273.098 59.1844H272.178ZM274.978 53.8744L274.128 56.2744H276.468L275.648 53.8744L275.328 52.8644H275.308C275.181 53.2644 275.071 53.6011 274.978 53.8744Z" fill="#DBDAD6"/>
<path d="M281.884 52.8244V52.0344H287.544V52.8244H285.164V59.1844H284.264V52.8244H281.884Z" fill="#DBDAD6"/>
</svg>
